<svg xmlns="http://www.w3.org/2000/svg" viewBox="0 0 16.86 10.54"><defs><style>.cls-1{fill:#0c6b66;}</style></defs><g id="Layer_2" data-name="Layer 2"><g id="ELEMENTS"><path class="cls-1" d="M8.49,7.82A2.41,2.41,0,0,1,8.22,9a2.49,2.49,0,0,1-.73.85,3.55,3.55,0,0,1-1.09.52,4.66,4.66,0,0,1-1.31.18H0V0H5.64a2,2,0,0,1,1,.24,2.53,2.53,0,0,1,.76.61,2.8,2.8,0,0,1,.48.86,2.81,2.81,0,0,1,.17,1,2.92,2.92,0,0,1-.38,1.44,2.35,2.35,0,0,1-1.13,1A2.73,2.73,0,0,1,8,6.09,2.78,2.78,0,0,1,8.49,7.82ZM2.05,1.75V4.41H4.78a1.21,1.21,0,0,0,.88-.36,1.31,1.31,0,0,0,.36-1,1.35,1.35,0,0,0-.33-1,1.08,1.08,0,0,0-.82-.36ZM6.43,7.43a1.71,1.71,0,0,0-.1-.54,1.66,1.66,0,0,0-.26-.45,1.14,1.14,0,0,0-.39-.3A1,1,0,0,0,5.19,6H2.05V8.8h3a1.35,1.35,0,0,0,.53-.1A1.37,1.37,0,0,0,6,8.41,1.44,1.44,0,0,0,6.32,8,1.41,1.41,0,0,0,6.43,7.43Z"/><path class="cls-1" d="M12.92,10.54a4.32,4.32,0,0,1-1.64-.31,3.72,3.72,0,0,1-2-2.08A3.9,3.9,0,0,1,9,6.67a4.27,4.27,0,0,1,.27-1.52,3.7,3.7,0,0,1,2-2.11,4.16,4.16,0,0,1,1.66-.31A4.07,4.07,0,0,1,14.58,3,3.9,3.9,0,0,1,16.86,7a1.7,1.7,0,0,1,0,.28H11a2.35,2.35,0,0,0,.21.79,2.05,2.05,0,0,0,.45.59,1.89,1.89,0,0,0,.62.38,2.18,2.18,0,0,0,.72.13,2.29,2.29,0,0,0,1.08-.28,1.56,1.56,0,0,0,.7-.74l1.65.46A3.39,3.39,0,0,1,15.1,10,4.11,4.11,0,0,1,12.92,10.54Zm2-4.55a2,2,0,0,0-.63-1.36,1.88,1.88,0,0,0-1.34-.51,2,2,0,0,0-.73.14,1.93,1.93,0,0,0-.59.38,1.83,1.83,0,0,0-.43.59A2.07,2.07,0,0,0,11,6Z"/><path class="cls-1" d="M10.39.5h5V1.75h-5Z"/></g></g></svg>