<svg xmlns="http://www.w3.org/2000/svg" xmlns:xlink="http://www.w3.org/1999/xlink" viewBox="0 0 393.7 291.9">
  <defs>
    <style>
      .cat-sleeping-1, .cat-sleeping-7 {
        fill: none;
      }

      .cat-sleeping-2 {
        fill: #087a77;
      }

      .cat-sleeping-3 {
        fill: #513b2b;
      }

      .cat-sleeping-10, .cat-sleeping-3, .cat-sleeping-4, .cat-sleeping-6, .cat-sleeping-7, .cat-sleeping-8, .cat-sleeping-9 {
        stroke: #2b2a28;
      }

      .cat-sleeping-3, .cat-sleeping-4, .cat-sleeping-6, .cat-sleeping-7 {
        stroke-linejoin: round;
      }

      .cat-sleeping-3, .cat-sleeping-4, .cat-sleeping-8, .cat-sleeping-9 {
        stroke-width: 5px;
      }

      .cat-sleeping-4 {
        fill: #38281d;
      }

      .cat-sleeping-5 {
        clip-path: url(#cat-mask);
      }

      .cat-sleeping-6 {
        fill: #4c2a4f;
      }

      .cat-sleeping-6, .cat-sleeping-7 {
        stroke-width: 7px;
      }

      .cat-sleeping-10, .cat-sleeping-8, .cat-sleeping-9 {
        fill: #f8a152;
      }

      .cat-sleeping-10, .cat-sleeping-12, .cat-sleeping-8, .cat-sleeping-9 {
        stroke-miterlimit: 10;
      }

      .cat-sleeping-10, .cat-sleeping-12, .cat-sleeping-9 {
        stroke-linecap: round;
      }

      .cat-sleeping-10 {
        stroke-width: 4px;
      }

      .cat-sleeping-11 {
        fill: #2b2a28;
      }

      .cat-sleeping-12 {
        fill: #6c6763;
        stroke: #c6773b;
        stroke-width: 3px;
      }

      .cat-sleeping-13 {
        fill: #c6773b;
      }
    </style>
    <clipPath id="cat-mask">
      <ellipse class="cat-sleeping-1" cx="146.22" cy="206.66" rx="142.72" ry="59.95"/>
    </clipPath>
  </defs>
  <g id="Layer_2" data-name="Layer 2">
    <g id="Layer_1-2" data-name="Layer 1">
      <g>
        <ellipse class="cat-sleeping-2" cx="262.82" cy="130.82" rx="130.87" ry="130.82"/>
        <g>
          <g id="bed">
            <ellipse class="cat-sleeping-3" cx="146.22" cy="229.45" rx="142.72" ry="59.95"/>
            <ellipse class="cat-sleeping-4" cx="146.22" cy="206.66" rx="142.72" ry="59.95"/>
            <g class="cat-sleeping-5">
              <ellipse class="cat-sleeping-6" cx="146.22" cy="227.25" rx="142.72" ry="59.95"/>
            </g>
            <line class="cat-sleeping-3" x1="3.5" y1="229.45" x2="3.5" y2="206.66"/>
            <line class="cat-sleeping-3" x1="288.95" y1="206.66" x2="288.95" y2="229.45"/>
            <ellipse class="cat-sleeping-7" cx="146.22" cy="206.66" rx="142.72" ry="59.95"/>
          </g>
          <g id="cat">
            <path id="tail" class="cat-sleeping-8" d="M235.81,151.5s41-5.23,35.12-33.16a47,47,0,0,0-21.45-30.45,9.23,9.23,0,0,1-1.77-14.24l0-.05a9.18,9.18,0,0,1,10.86-1.76c14.88,7.8,39,30.11,33.71,59.16-7.53,41.12-46.91,37.3-46.91,37.3"/>
            <path id="hand-left" class="cat-sleeping-8" d="M97.48,225.26s-36.3,26.44-50.55,17.58,4.41-24.58,4.41-24.58,7.4-7.53,23.27-16.06"/>
            <path id="body" class="cat-sleeping-8" d="M155.35,236s53.2,5.3,78.29-10.41c14.76-9.24,38.53-32.55,24.45-63.51-8-17.63-25-29.31-44.27-31.69a83.88,83.88,0,0,0-53.57,11.12s-24.14,14.57-30.95,20.87"/>
            <path id="head" class="cat-sleeping-9" d="M155.35,236c-46.43,15.86-78.86,3-78.86,3C27,222.21,54.1,162.26,54.1,162.26c-.24-26.83,10.73-35,10.73-35,16.1.47,25.9,15.4,25.9,15.4,12.13-4.9,35.46-1.87,35.46-1.87s13.3-20.06,20.76-17.26,13.3,18,13.3,18,3.23,7.18,4.23,10.18"/>
            <path id="hand-right" class="cat-sleeping-9" d="M164.33,214.74s-27.68,19.91-14.6,34.57c0,0,17.38,10.75,35.24-16.06"/>
            <path id="eye-left" class="cat-sleeping-10" d="M71.68,197.22s8.35,7,15.83-.94"/>
            <path id="eye-right" class="cat-sleeping-10" d="M121.38,195.54s7.6,7.82,15.84.64"/>
            <path id="nose" class="cat-sleeping-11" d="M95.61,205.29s.45-2,4.07-2.1,6.63,0,6.63,0,2.83-.11,3.17,2.44-4.57,4.53-7,4.56c-2.08,0-5.32-.94-6.5-2.87A2.71,2.71,0,0,1,95.61,205.29Z"/>
            <line id="bulu-right-1" class="cat-sleeping-12" x1="144.88" y1="203.76" x2="159.98" y2="198.52"/>
            <line id="bulu-right-2" class="cat-sleeping-12" x1="145.46" y1="207.95" x2="161.43" y2="208.67"/>
            <line id="bulu-left-1" class="cat-sleeping-12" x1="60.62" y1="202.2" x2="45.38" y2="197.38"/>
            <line id="bulu-left-2" class="cat-sleeping-12" x1="60.16" y1="206.4" x2="44.21" y2="207.57"/>
            <path class="cat-sleeping-13" d="M66.21,157.25s-1.6-11.49,2.47-14.11S80,150.2,80,150.2Z"/>
            <path class="cat-sleeping-13" d="M136,146.23s3.64-7.2,7.57-9.93c0,0,5.09,3.21,7.42,13.13Z"/>
          </g>
        </g>
      </g>
    </g>
  </g>
</svg>
