<svg xmlns="http://www.w3.org/2000/svg" viewBox="0 0 13.11 17.14"><defs><style>.cls-1{fill:#0c6b66;}</style></defs><g id="Layer_2" data-name="Layer 2"><g id="ELEMENTS"><path class="cls-1" d="M8.41,10.72h0c2.81-.42,3.93-1.91,4.38-3.08A5.18,5.18,0,0,0,12,2.76,4.17,4.17,0,0,0,11.85,0c-.59.19-.51-.24-2.69,1.08a.25.25,0,0,1-.09,0H9A9.51,9.51,0,0,0,6.68.79a9.07,9.07,0,0,0-2.26.32c-.13,0-.09,0-.22,0L3.9.9A4.37,4.37,0,0,0,1.51,0a4.19,4.19,0,0,0-.13,2.76.14.14,0,0,1,0,.13A5,5,0,0,0,.57,7.64C1,8.81,2.13,10.3,4.94,10.72h0a3,3,0,0,0-.74,1.52,1.66,1.66,0,0,1-1.06.09,1.41,1.41,0,0,1-.81-.69A2.57,2.57,0,0,0,0,10.2l.11,1.25c.45,0,.89.42,1.13.83a2.61,2.61,0,0,0,2.91,1.3v3.56h5V12.69A2.74,2.74,0,0,0,8.41,10.72Z"/></g></g></svg>