<svg xmlns="http://www.w3.org/2000/svg" viewBox="0 0 15.77 15.77"><defs><style>.cls-1{fill:#0c6b66;}</style></defs><g id="Layer_2" data-name="Layer 2"><g id="ELEMENTS"><path class="cls-1" d="M12.06,2.82a.92.92,0,1,0,.92.92A.93.93,0,0,0,12.06,2.82Z"/><path class="cls-1" d="M8,4a3.89,3.89,0,1,0,3.88,3.88A3.88,3.88,0,0,0,8,4Zm0,6.37a2.49,2.49,0,1,1,2.49-2.49A2.49,2.49,0,0,1,8,10.37Z"/><path class="cls-1" d="M11,15.77H4.74A4.74,4.74,0,0,1,0,11V4.74A4.74,4.74,0,0,1,4.74,0H11a4.74,4.74,0,0,1,4.74,4.74V11A4.75,4.75,0,0,1,11,15.77ZM4.74,1.48A3.26,3.26,0,0,0,1.48,4.74V11a3.25,3.25,0,0,0,3.26,3.25H11A3.25,3.25,0,0,0,14.28,11V4.74A3.26,3.26,0,0,0,11,1.48Z"/></g></g></svg>