<svg xmlns="http://www.w3.org/2000/svg" viewBox="0 0 96.73 110.42"><defs><style>.cls-1{fill:#fff;stroke:#fff;stroke-miterlimit:10;stroke-width:3.49px;}</style></defs><g id="Layer_2" data-name="Layer 2"><g id="Layer_1-2" data-name="Layer 1"><path class="cls-1" d="M36,42.76H33.58V23.37H4.08V42.76H1.75v-41H4.08V21.2h29.5V1.75H36Z"/><path class="cls-1" d="M93.32,42.76H90.5l-13.58-19H65.34v19H63v-41H79.6A15.82,15.82,0,0,1,89.86,5a10.74,10.74,0,0,1,3.62,8.44,8.9,8.9,0,0,1-3,7,11.85,11.85,0,0,1-4,2.27,21.72,21.72,0,0,1-6.74,1.11ZM79.5,21.63c.24,0,.84,0,1.79-.08a18.93,18.93,0,0,0,3.61-.65,10.15,10.15,0,0,0,3.94-2,6.8,6.8,0,0,0,2.27-5.37,8.61,8.61,0,0,0-2.84-6.91,13.29,13.29,0,0,0-8.6-2.67H65.34V21.63Z"/><path class="cls-1" d="M93.33,108.67H90.52l-13.58-19H65.35v19H63v-41H79.61a15.85,15.85,0,0,1,10.27,3.23,10.72,10.72,0,0,1,3.62,8.43,8.92,8.92,0,0,1-3,7,11.82,11.82,0,0,1-4,2.26,21.78,21.78,0,0,1-6.74,1.12ZM79.51,87.55c.25,0,.85,0,1.8-.08a18.93,18.93,0,0,0,3.61-.65,10.18,10.18,0,0,0,3.94-2,6.82,6.82,0,0,0,2.27-5.36,8.65,8.65,0,0,0-2.84-6.92,13.34,13.34,0,0,0-8.61-2.67H65.35V87.55Z"/><rect class="cls-1" x="1.75" y="67.66" width="34.21" height="2.14"/><rect class="cls-1" x="1.75" y="106.53" width="34.21" height="2.14"/><rect class="cls-1" x="1.75" y="86.83" width="34.21" height="2.14"/></g></g></svg>