<svg xmlns="http://www.w3.org/2000/svg" viewBox="0 0 19.76 24.8">
  <g id="sleeping-z-container" data-name="sleeping-z">
    <g id="sleeping-z" data-name="sleeping-z">
      <path d="M17.66,8.69c-.47.14-1.06.33-1.76.57a23.87,23.87,0,0,0-5.85,3.91L4.54,17.88l-.06.05,3.87,1.29c1.61.52,2.88,1,3.82,1.33a10.55,10.55,0,0,1,2.07.95,1.84,1.84,0,0,1,.95,2,1.54,1.54,0,0,1-.87,1.16,1.5,1.5,0,0,1-1.21,0c-.21-.08-.52-.21-.93-.4s-.72-.33-.93-.41q-1.65-.64-5-1.81t-5-1.81a2,2,0,0,1-1-.88,1.94,1.94,0,0,1-.16-1.51,4.57,4.57,0,0,1,1.29-2c.21-.22.8-.71,1.75-1.49,1.7-1.44,3.39-2.87,5.1-4.3a36.33,36.33,0,0,1,5.4-3.76C12.47,6,11.6,5.72,11,5.5L6.62,3.81l-.35-.12-.36-.11a1.8,1.8,0,0,1-1-.86A2,2,0,0,1,4.8,1.2C5.12,0,6-.29,7.49.27c.49.2,1.23.52,2.2,1s1.71.78,2.21,1,1.39.52,2.51.92,2,.69,2.52.91Q20.15,5.29,19.71,7C19.52,7.69,18.83,8.26,17.66,8.69Z"/>
    </g>
  </g>
</svg>
