<svg xmlns="http://www.w3.org/2000/svg" xmlns:xlink="http://www.w3.org/1999/xlink" viewBox="0 0 439.47 551.04">
  <defs>
    <style>
      .cls-1, .cls-15, .cls-21, .cls-37, .cls-47, .cls-51, .cls-8 {
        fill: none;
      }

      .cls-2 {
        isolation: isolate;
      }

      .cls-3 {
        clip-path: url(#clip-path);
      }

      .cls-4 {
        fill: #eeefe8;
      }

      .cls-5 {
        fill: #202e54;
      }

      .cls-10, .cls-11, .cls-12, .cls-15, .cls-21, .cls-22, .cls-37, .cls-39, .cls-44, .cls-47, .cls-48, .cls-49, .cls-5, .cls-50, .cls-51, .cls-52, .cls-53, .cls-8 {
        stroke: #000;
      }

      .cls-21, .cls-22, .cls-5, .cls-50, .cls-51, .cls-52 {
        stroke-linecap: round;
      }

      .cls-10, .cls-11, .cls-12, .cls-15, .cls-37, .cls-39, .cls-44, .cls-45, .cls-46, .cls-47, .cls-48, .cls-49, .cls-5, .cls-50, .cls-51, .cls-52, .cls-53, .cls-8 {
        stroke-miterlimit: 10;
      }

      .cls-10, .cls-11, .cls-5, .cls-53, .cls-8 {
        stroke-width: 5px;
      }

      .cls-11, .cls-48, .cls-49, .cls-50, .cls-6 {
        fill: #eacea9;
      }

      .cls-7 {
        fill: #d1b695;
      }

      .cls-9 {
        clip-path: url(#clip-path-2);
      }

      .cls-10, .cls-20, .cls-25, .cls-29 {
        fill: #666;
      }

      .cls-12 {
        fill: #bfa186;
        stroke-width: 4.99px;
      }

      .cls-13 {
        clip-path: url(#clip-path-3);
      }

      .cls-14 {
        fill: #f75e06;
      }

      .cls-15 {
        stroke-width: 2.6px;
      }

      .cls-16 {
        fill: #a25e06;
        opacity: 0.3;
      }

      .cls-16, .cls-20, .cls-21, .cls-25, .cls-29, .cls-36 {
        mix-blend-mode: multiply;
      }

      .cls-17 {
        fill: #ff8aff;
      }

      .cls-18 {
        fill: #311500;
      }

      .cls-19, .cls-35 {
        fill: #f3e4ad;
      }

      .cls-19 {
        opacity: 0.14;
      }

      .cls-21, .cls-22 {
        stroke-linejoin: round;
      }

      .cls-21 {
        stroke-width: 1.32px;
      }

      .cls-22, .cls-27 {
        fill: #232323;
      }

      .cls-22, .cls-37 {
        stroke-width: 2.65px;
      }

      .cls-23 {
        fill: #141414;
      }

      .cls-24 {
        fill: #db8402;
      }

      .cls-25 {
        opacity: 0.67;
      }

      .cls-26 {
        fill: #3f3f3f;
      }

      .cls-28 {
        fill: #d66020;
      }

      .cls-29 {
        opacity: 0.35;
      }

      .cls-30 {
        fill: #e54600;
      }

      .cls-31 {
        fill: #515151;
      }

      .cls-32 {
        fill: #401e0f;
      }

      .cls-33 {
        fill: #120101;
      }

      .cls-34 {
        opacity: 0.16;
      }

      .cls-36 {
        fill: #ccc;
      }

      .cls-38 {
        fill: #00b3f2;
      }

      .cls-39, .cls-41 {
        fill: #fab217;
      }

      .cls-39, .cls-52 {
        stroke-width: 3px;
      }

      .cls-40 {
        fill: #f6ca10;
      }

      .cls-42 {
        fill: #d78e1c;
      }

      .cls-43 {
        fill: #c2802d;
      }

      .cls-44 {
        stroke-width: 8.49px;
      }

      .cls-45 {
        fill: #00005b;
        stroke-width: 2.77px;
      }

      .cls-45, .cls-46 {
        stroke: #99f;
      }

      .cls-46 {
        fill: #99f;
        stroke-width: 0.61px;
      }

      .cls-47, .cls-48, .cls-50, .cls-51 {
        stroke-width: 3.81px;
      }

      .cls-49 {
        stroke-width: 3.33px;
      }

      .cls-52 {
        fill: #7c2d12;
      }

      .cls-53 {
        fill: #2b2a28;
      }
    </style>
    <clipPath id="clip-path" transform="translate(-444.49 -437.96)">
      <path class="cls-1" d="M444.49,657.7c0,121.35,98.38,219.73,219.74,219.73S884,779.05,884,657.7h333.25V0H0V661Z"/>
    </clipPath>
    <clipPath id="clip-path-2" transform="translate(-444.49 -437.96)">
      <rect class="cls-1" x="641.38" y="764.7" width="43.51" height="122.56"/>
    </clipPath>
    <clipPath id="clip-path-3" transform="translate(-444.49 -437.96)">
      <circle class="cls-1" cx="663.74" cy="680.86" r="39.34" transform="translate(-93.12 1256.44) rotate(-82.98)"/>
    </clipPath>
  </defs>
  <g class="cls-2">
    <g id="Layer_2" data-name="Layer 2">
      <g id="clip-path-4" data-name="clip-path">
        <g class="cls-3">
          <g id="background">
            <circle class="cls-4" cx="219.73" cy="219.73" r="219.73"/>
          </g>
          <path id="clothes" class="cls-5" d="M541.43,986.5c0-175.15,94.24-187.53,94.24-187.53s144.2-38.07,159,179.92" transform="translate(-444.49 -437.96)"/>
          <g id="neck">
            <rect class="cls-6" x="196.88" y="327.73" width="43.51" height="122.56"/>
            <path class="cls-7" d="M641.11,796.4s18.35,13.71,42.15,1.34V777.41s-17.66,7.28-42.15,1.43Z" transform="translate(-444.49 -437.96)"/>
            <rect class="cls-8" x="196.88" y="326.73" width="43.51" height="122.56"/>
            <rect class="cls-8" x="196.88" y="326.73" width="43.51" height="122.56"/>
          </g>
          <g id="clothes-inner">
            <g class="cls-9">
              <path class="cls-10" d="M624.72,807.45s31.34,31,75.84,4.36l15.16,73-110.31,2.86Z" transform="translate(-444.49 -437.96)"/>
            </g>
            <rect class="cls-8" x="196.88" y="326.73" width="43.51" height="122.56"/>
          </g>
          <path id="left-ear" class="cls-11" d="M607.76,694.13c-13.11-5.27-25.62-3.48-30.9,9.63-5.72,14.24.89,31.88,11.69,36.59,8.18,3.56,16.21,2.32,18,1.73" transform="translate(-444.49 -437.96)"/>
          <path id="left-ear-inner" class="cls-7" d="M592.72,700.1s-19.61,17.29,3.89,27.32" transform="translate(-444.49 -437.96)"/>
          <path id="right-ear" class="cls-11" d="M725.6,693.64c13.86-2.78,25.83,1.28,28.61,15.13,3,15.05-6.72,31.18-18.2,33.83-8.69,2-16.35-.69-18-1.59" transform="translate(-444.49 -437.96)"/>
          <path id="right-ear-inner" class="cls-7" d="M738.57,702.58s19.43,15-2,25.86" transform="translate(-444.49 -437.96)"/>
          <g id="head">
            <path class="cls-11" d="M595.06,679.69s-9.37,73.12,27.51,95.18c43.31,25.89,90.09,5.5,103.23-22.41,22.56-47.91,2.4-94.83,2.4-94.83s-1.52-6.86-7.36-15.13H607C596.53,660.22,595.06,679.69,595.06,679.69Z" transform="translate(-444.49 -437.96)"/>
            <ellipse class="cls-12" cx="219.04" cy="203.47" rx="56.06" ry="10.26"/>
          </g>
          <g id="basketball">
            <g class="cls-13">
              <circle class="cls-14" cx="663.74" cy="680.86" r="39.34" transform="translate(-537.61 818.48) rotate(-82.98)"/>
              <path class="cls-15" d="M629.74,649.46c43.75,4.33,43.75,28.59,43.75,28.59s0,25.56-43.75,34.22" transform="translate(-444.49 -437.96)"/>
              <path class="cls-15" d="M659.59,634c13.12,4.5,23,24,23,47.32,0,23.93-10.39,43.8-24,47.63" transform="translate(-444.49 -437.96)"/>
              <path class="cls-15" d="M618,683.11a251.36,251.36,0,0,1,52.88-5.5,255.85,255.85,0,0,1,38.58,2.88" transform="translate(-444.49 -437.96)"/>
              <path class="cls-15" d="M696.36,651.19c1.22,7.36-2.69,14.62-2.69,14.62a26.72,26.72,0,0,0-3.07,13.1c0,6.13,1.65,11.54,4.16,14.73a16,16,0,0,1,3.34,7.22,14.45,14.45,0,0,1-1.5,9.68" transform="translate(-444.49 -437.96)"/>
            </g>
            <circle class="cls-15" cx="663.74" cy="680.86" r="39.34" transform="translate(-537.61 818.48) rotate(-82.98)"/>
            <path class="cls-16" d="M692.37,653.89a42.19,42.19,0,0,1,1,7.31c.37,8.13-3.89,17.41-9.55,23.07a33.65,33.65,0,0,1-23.07,9.56c-8.84,0-16.68-3.7-23.07-9.56-5.75-5.28-8.56-12.88-9.35-20.48a39.35,39.35,0,1,0,64.08-9.9Z" transform="translate(-444.49 -437.96)"/>
          </g>
          <g id="music">
            <g>
              <path class="cls-17" d="M651,704.22a4.63,4.63,0,0,1-4.35-2.23c-1.28-2.47.45-5.82,3.94-7.64a9.16,9.16,0,0,1,4.16-1.07,6.78,6.78,0,0,1,1.2.1V669.17a1.31,1.31,0,0,1,1-1.29l19.49-4h0l.79-.17,1.31-.25h.16a1.31,1.31,0,0,1,1.31,1.31v28.05H680a7.73,7.73,0,0,1-4.3,5.18,9,9,0,0,1-4.16,1.08,4.63,4.63,0,0,1-4.35-2.24c-1.28-2.46.45-5.81,3.94-7.63a9,9,0,0,1,4.16-1.08,6.78,6.78,0,0,1,1.2.11V671.56L659.77,675v22c0,2.24-1.83,4.71-4.61,6.15A9,9,0,0,1,651,704.22Z" transform="translate(-444.49 -437.96)"/>
              <path d="M678.75,664.44a.34.34,0,0,1,.34.34v27.07h0c.16,1.83-1.34,4-3.82,5.29a8.06,8.06,0,0,1-3.71,1,3.73,3.73,0,0,1-3.49-1.71c-1-1.95.57-4.78,3.53-6.32a8.16,8.16,0,0,1,3.71-1,4.81,4.81,0,0,1,2.17.46V670.74a.3.3,0,0,0-.3-.3h-.06L659,674.11a.3.3,0,0,0-.24.29V697c0,1.81-1.61,4-4.09,5.29a8.18,8.18,0,0,1-3.71,1,3.75,3.75,0,0,1-3.49-1.71c-1-1.95.57-4.78,3.53-6.32a8.18,8.18,0,0,1,3.71-1,5,5,0,0,1,2.17.46V669.17a.34.34,0,0,1,.27-.34l20.27-4.13v0l1.22-.23h.07m0-2a3,3,0,0,0-.43,0l-1.23.24-1.58.3v0l-18.71,3.81a2.3,2.3,0,0,0-1.83,2.25V692.3h-.22a10,10,0,0,0-4.61,1.19c-4,2.07-5.89,6-4.36,9A5.64,5.64,0,0,0,651,705.2a10,10,0,0,0,4.61-1.19c3.09-1.61,5.16-4.43,5.14-7V675.75l14.76-3v14.42h-.22a10.15,10.15,0,0,0-4.61,1.18c-4,2.07-5.89,6-4.36,8.95a5.64,5.64,0,0,0,5.22,2.76,10,10,0,0,0,4.61-1.19,9.08,9.08,0,0,0,4.61-5.07H681l0-1.95V664.78a2.3,2.3,0,0,0-2.29-2.29Z" transform="translate(-444.49 -437.96)"/>
            </g>
          </g>
          <g id="camera">
            <g>
              <g>
                <g>
                  <rect class="cls-18" x="643" y="654.23" width="6.79" height="10.53" transform="matrix(0.02, -1, 1, 0.02, -468.16, 856.95)"/>
                  <rect class="cls-19" x="640.35" y="658.48" width="6.79" height="1.93" transform="translate(-470.73 854.26) rotate(-89.05)"/>
                  <rect class="cls-19" x="644.34" y="659.03" width="6.79" height="0.97" transform="translate(-466.87 858.31) rotate(-89.05)"/>
                  <rect class="cls-20" x="647.52" y="658.82" width="6.79" height="1.49" transform="matrix(0.02, -1, 1, 0.02, -463.8, 861.54)"/>
                  <rect class="cls-20" x="638.15" y="658.99" width="6.79" height="0.83" transform="translate(-472.85 852.02) rotate(-89.05)"/>
                </g>
                <polygon class="cls-21" points="205.62 224.98 207.11 225 207.22 218.22 205.73 218.19 205.73 218.19 203.78 218.16 203.78 218.16 202.82 218.15 202.82 218.15 200.27 218.1 200.27 218.1 198.34 218.07 198.34 218.07 196.7 218.04 196.59 224.83 197.41 224.84 197.41 224.84 199.51 224.88 200.16 224.89 200.16 224.89 202.71 224.93 202.71 224.93 203.67 224.95 203.67 224.95 205.62 224.98 205.62 224.98"/>
              </g>
              <g>
                <polygon class="cls-22" points="227.32 214.05 222.81 213.97 222.57 213.96 218.07 213.88 213.33 219.1 213.21 225.53 222.36 225.7 222.59 225.7 231.74 225.87 231.86 219.44 227.32 214.05"/>
                <polyline points="213.33 219.1 213.21 225.53 222.36 225.7 222.59 225.7 231.74 225.87 231.86 219.44"/>
                <line class="cls-23" x1="223.26" y1="216.9" x2="223.02" y2="216.89"/>
              </g>
              <rect class="cls-24" x="683.19" y="662.16" width="6.1" height="11.59" transform="translate(-437.44 905.12) rotate(-89.05)"/>
              <rect class="cls-25" x="645.29" y="656.11" width="3.42" height="10.53" transform="matrix(0.02, -1, 1, 0.02, -469.46, 859.41)"/>
              <rect class="cls-26" x="640.96" y="648.71" width="47.04" height="72.11" rx="2.82" transform="translate(-475.65 899.88) rotate(-89.05)"/>
              <path class="cls-27" d="M700.87,664.66l-.16,9.76-72.1-1.19.16-9.76a2.83,2.83,0,0,1,2.87-2.78l66.45,1.1A2.83,2.83,0,0,1,700.87,664.66Z" transform="translate(-444.49 -437.96)"/>
              <rect class="cls-24" x="683.19" y="662.16" width="6.1" height="11.59" transform="translate(-437.44 905.12) rotate(-89.05)"/>
              <polygon class="cls-28" points="247.6 227.04 247.5 233.13 246.65 233.12 246.74 227.87 236.84 227.71 236.75 232.96 235.9 232.94 236 226.84 247.6 227.04"/>
              <path class="cls-27" d="M700.29,700l-.1,6.09a2.84,2.84,0,0,1-2.87,2.78l-66.46-1.1a2.82,2.82,0,0,1-2.77-2.87l.1-6.09Z" transform="translate(-444.49 -437.96)"/>
              <path class="cls-29" d="M700.21,704.41l0,1.64a2.84,2.84,0,0,1-2.87,2.78l-66.46-1.1a2.82,2.82,0,0,1-2.77-2.87l0-1.64Z" transform="translate(-444.49 -437.96)"/>
              <circle cx="669.08" cy="686.67" r="18.24" transform="translate(-632.91 -180.1) rotate(-19.18)"/>
              <circle class="cls-30" cx="669.08" cy="686.67" r="16.85" transform="translate(-706.32 19.39) rotate(-31.91)"/>
              <circle class="cls-31" cx="669.08" cy="686.67" r="15.89" transform="translate(-734.07 236.27) rotate(-45)"/>
              <path class="cls-32" d="M682.48,686.89q0,.51-.06,1A13.38,13.38,0,0,1,669.88,700c-.34,0-.67,0-1,0a14.75,14.75,0,0,1-1.89-.17,12.82,12.82,0,0,1-2.64-.7,13.48,13.48,0,0,1-6.08-4.65,14.15,14.15,0,0,1-1.14-1.85,14,14,0,0,1-.92-2.38,13.7,13.7,0,0,1-.5-3.87,13,13,0,0,1,.13-1.67,13.41,13.41,0,0,1,11.81-11.43,13.74,13.74,0,0,1,5.53.56,13.51,13.51,0,0,1,2.34,1,13.89,13.89,0,0,1,1.82,1.19,13.69,13.69,0,0,1,2.34,2.35,13.38,13.38,0,0,1,2.1,3.88,14,14,0,0,1,.62,2.67A14.77,14.77,0,0,1,682.48,686.89Z" transform="translate(-444.49 -437.96)"/>
              <circle class="cls-33" cx="669.08" cy="686.67" r="7.5" transform="translate(-558.08 -305.02) rotate(-10.46)"/>
              <g class="cls-34">
                <g>
                  <path class="cls-35" d="M673.16,673.91l-17,16.41a13.7,13.7,0,0,1-.5-3.87,13,13,0,0,1,.13-1.67l11.81-11.43a13.74,13.74,0,0,1,5.53.56Z" transform="translate(-444.49 -437.96)"/>
                  <path class="cls-35" d="M677.32,676.1l-19.07,18.45a14.15,14.15,0,0,1-1.14-1.85l18.39-17.79A13.89,13.89,0,0,1,677.32,676.1Z" transform="translate(-444.49 -437.96)"/>
                </g>
                <g>
                  <path class="cls-35" d="M681.76,682.33,664.33,699.2a13.34,13.34,0,0,1-3.81-2.23l19.14-18.52A13.38,13.38,0,0,1,681.76,682.33Z" transform="translate(-444.49 -437.96)"/>
                  <path class="cls-35" d="M682.48,686.89q0,.51-.06,1L669.88,700c-.34,0-.67,0-1,0a14.75,14.75,0,0,1-1.89-.17L682.38,685A14.77,14.77,0,0,1,682.48,686.89Z" transform="translate(-444.49 -437.96)"/>
                </g>
              </g>
              <path class="cls-28" d="M666.63,683.34a1.17,1.17,0,1,1-1.15-1.19A1.17,1.17,0,0,1,666.63,683.34Z" transform="translate(-444.49 -437.96)"/>
              <path class="cls-28" d="M668,685.85a.32.32,0,0,1-.33.32.33.33,0,1,1,0-.65A.32.32,0,0,1,668,685.85Z" transform="translate(-444.49 -437.96)"/>
              <path class="cls-36" d="M633.9,660.73l-.78,47-2.26,0a2.82,2.82,0,0,1-2.77-2.87l.68-41.39a2.83,2.83,0,0,1,2.87-2.78Z" transform="translate(-444.49 -437.96)"/>
              <path class="cls-36" d="M700.87,664.66l-.68,41.39a2.84,2.84,0,0,1-2.87,2.78l-2,0,.78-47,2,0A2.83,2.83,0,0,1,700.87,664.66Z" transform="translate(-444.49 -437.96)"/>
              <path d="M680.5,664.81l11.59.19-.1,6.1-11.59-.19.1-6.1m-.88-.91,0,.89-.1,6.1v.9h.89L692,672l.9,0v-.9L693,665l0-.9h-.9l-11.59-.19-.89,0Z" transform="translate(-444.49 -437.96)"/>
              <rect class="cls-37" x="640.96" y="648.71" width="47.04" height="72.11" rx="2.82" transform="translate(-475.65 899.88) rotate(-89.05)"/>
            </g>
          </g>
          <g id="_1001" data-name="1001">
            <g>
              <polygon class="cls-38" points="204.1 241.18 204.1 225.33 201.84 225.33 201.84 220.91 207.36 218.15 211.28 218.15 211.28 241.18 204.1 241.18"/>
              <path d="M654.45,657.44v20.38h-4.54V662h-2.25v-2.29l4.51-2.25h2.28m2.65-2.65h-5.56l-.56.28-4.51,2.25-1.46.74v6.56h2.26v15.84h9.83V654.79Z" transform="translate(-444.49 -437.96)"/>
            </g>
            <g>
              <path class="cls-38" d="M668,679.14a5.72,5.72,0,0,1-4.13-1.71,5.66,5.66,0,0,1-1.73-4.15V662a5.89,5.89,0,0,1,5.86-5.87h4.54a5.65,5.65,0,0,1,4.12,1.74,5.72,5.72,0,0,1,1.71,4.13v11.3a5.7,5.7,0,0,1-1.71,4.12,5.61,5.61,0,0,1-4.12,1.74Zm1.47-5.31a.7.7,0,0,0,.18.25.94.94,0,0,0,.6.16,1,1,0,0,0,1-1V670.7Zm.78-12.81a.85.85,0,0,0-.65.27.92.92,0,0,0-.28.69v2.59l1.74-3.12A.76.76,0,0,0,670.29,661Z" transform="translate(-444.49 -437.96)"/>
              <path d="M672.58,657.44a4.35,4.35,0,0,1,3.18,1.34,4.42,4.42,0,0,1,1.33,3.2v11.3a4.4,4.4,0,0,1-1.33,3.19,4.32,4.32,0,0,1-3.18,1.35H668a4.4,4.4,0,0,1-3.19-1.33,4.35,4.35,0,0,1-1.35-3.21V662a4.58,4.58,0,0,1,4.54-4.54h4.54M668,669.67l4.51-8.1a2.19,2.19,0,0,0-2.26-1.88,2.17,2.17,0,0,0-1.59.67A2.2,2.2,0,0,0,668,662v7.69m2.25,5.89a2.15,2.15,0,0,0,1.62-.68,2.22,2.22,0,0,0,.67-1.6v-7.69l-4.49,8.07a2.33,2.33,0,0,0,.72,1.41,2.15,2.15,0,0,0,1.48.49m2.29-20.77H668a7.22,7.22,0,0,0-7.19,7.19v11.3a7.2,7.2,0,0,0,7.19,7.18h4.54a7,7,0,0,0,5.06-2.12,7.08,7.08,0,0,0,2.09-5.06V662a7.2,7.2,0,0,0-7.15-7.19Z" transform="translate(-444.49 -437.96)"/>
            </g>
            <g>
              <path class="cls-38" d="M652.35,705.48a5.89,5.89,0,0,1-5.86-5.86v-11.3a5.89,5.89,0,0,1,5.86-5.86h4.54a5.62,5.62,0,0,1,4.12,1.73,5.68,5.68,0,0,1,1.71,4.13v11.3a5.89,5.89,0,0,1-5.83,5.86Zm1.47-5.31a.7.7,0,0,0,.18.25.89.89,0,0,0,.61.16,1,1,0,0,0,.95-1V697Zm.79-12.81a.85.85,0,0,0-.66.28.9.9,0,0,0-.28.68v2.59l1.74-3.12A.76.76,0,0,0,654.61,687.36Z" transform="translate(-444.49 -437.96)"/>
              <path d="M656.89,683.78a4.35,4.35,0,0,1,3.18,1.34,4.4,4.4,0,0,1,1.33,3.2v11.3a4.58,4.58,0,0,1-4.51,4.54h-4.54a4.58,4.58,0,0,1-4.54-4.54v-11.3a4.58,4.58,0,0,1,4.54-4.54h4.54M652.35,696l4.51-8.1a2.27,2.27,0,0,0-4.51.41V696m2.26,5.89a2.14,2.14,0,0,0,1.61-.68,2.18,2.18,0,0,0,.67-1.6v-7.69L652.4,700a2.33,2.33,0,0,0,.72,1.41,2.18,2.18,0,0,0,1.49.49m2.28-20.77h-4.54a7.22,7.22,0,0,0-7.18,7.19v11.3a7.24,7.24,0,0,0,7.19,7.19h4.54a7,7,0,0,0,5.06-2.13,7.09,7.09,0,0,0,2.1-5.06v-11.3a7.09,7.09,0,0,0-2.1-5.06,7,7,0,0,0-5.06-2.13Z" transform="translate(-444.49 -437.96)"/>
            </g>
            <g>
              <polygon class="cls-38" points="224.66 267.52 224.66 251.68 222.4 251.68 222.4 247.25 227.93 244.49 231.84 244.49 231.84 267.52 224.66 267.52"/>
              <path d="M675,683.78v20.38h-4.54V688.32h-2.25V686l4.51-2.25H675m2.65-2.65h-5.55l-.56.28L667,683.67l-1.47.73V691h2.26v15.85h9.83V681.13Z" transform="translate(-444.49 -437.96)"/>
            </g>
          </g>
          <g id="eth">
            <path class="cls-39" d="M687.49,682.56a21.41,21.41,0,1,1-21.4-21.4A21.4,21.4,0,0,1,687.49,682.56Z" transform="translate(-444.49 -437.96)"/>
            <circle class="cls-40" cx="221.6" cy="244.6" r="17.64"/>
            <circle class="cls-41" cx="666.09" cy="682.56" r="16.11" transform="translate(-730.42 301.45) rotate(-49.12)"/>
            <path class="cls-42" d="M666.09,701.06a18.5,18.5,0,1,1,18.49-18.5A18.52,18.52,0,0,1,666.09,701.06Zm0-35.15a16.65,16.65,0,1,0,16.65,16.65A16.67,16.67,0,0,0,666.09,665.91Z" transform="translate(-444.49 -437.96)"/>
            <g>
              <g>
                <polygon class="cls-40" points="213.02 246.63 221.59 258.45 230.17 246.63 221.59 252.22 213.02 246.63"/>
                <polygon class="cls-40" points="221.59 251.05 221.59 251.05 230.36 245.77 221.59 230.74 212.83 245.77 221.59 251.05 221.59 251.05"/>
              </g>
              <g>
                <g>
                  <polygon class="cls-42" points="221.59 230.74 212.83 245.77 221.59 251.05 230.36 245.77 221.59 230.74"/>
                  <polygon class="cls-42" points="221.59 252.22 213.02 246.63 221.59 258.45 230.17 246.63 221.59 252.22"/>
                </g>
                <polygon class="cls-43" points="221.59 242.7 212.83 245.77 221.59 251.05 230.36 245.77 221.59 242.7"/>
              </g>
            </g>
          </g>
          <g id="ae">
            <rect class="cls-44" x="191.27" y="213.35" width="55.38" height="55.38" rx="12.29"/>
            <rect class="cls-45" x="191.27" y="213.35" width="55.38" height="55.38" rx="12.29"/>
            <g>
              <path class="cls-46" d="M651,681.79,648.6,689h-3.06l7.8-23h3.58l7.84,23h-3.17l-2.45-7.23Zm7.53-2.32-2.25-6.61c-.51-1.5-.85-2.87-1.19-4.2H655c-.34,1.37-.71,2.77-1.16,4.17l-2.25,6.64Z" transform="translate(-444.49 -437.96)"/>
              <path class="cls-46" d="M669.3,681.31c.07,4.06,2.66,5.73,5.66,5.73a11,11,0,0,0,4.57-.85l.51,2.14a13.33,13.33,0,0,1-5.49,1c-5.08,0-8.12-3.34-8.12-8.32s2.94-8.9,7.74-8.9c5.39,0,6.82,4.74,6.82,7.77a12.3,12.3,0,0,1-.1,1.4Zm8.79-2.15c0-1.91-.78-4.87-4.16-4.87-3,0-4.36,2.79-4.6,4.87Z" transform="translate(-444.49 -437.96)"/>
            </g>
          </g>
          <g id="face-front">
            <path class="cls-11" d="M728.2,657.63s-1.52-6.86-7.36-15.13h-1.13c-2.91,5.17-26.86,9.2-56,9.2s-53.06-4-56-9.2H607c-10.48,17.72-12,37.19-12,37.19s-9.37,73.12,27.51,95.18c43.31,25.89,90.09,5.5,103.23-22.41C748.36,704.55,728.2,657.63,728.2,657.63Z" transform="translate(-444.49 -437.96)"/>
          </g>
          <g id="glass">
            <path class="cls-47" d="M616.68,683.19a81.78,81.78,0,0,1,31,.26,11.35,11.35,0,0,1,9.06,9.58c1.19,8.38,1,21.49-9.07,29.43-13.06,10.26-27,3.73-27,3.73s-18.18-5.88-12.81-34A11.29,11.29,0,0,1,616.68,683.19Z" transform="translate(-444.49 -437.96)"/>
            <path class="cls-47" d="M683.63,683.19a81.78,81.78,0,0,1,31,.26,11.36,11.36,0,0,1,9.06,9.58c1.18,8.38,1,21.49-9.07,29.43-13.06,10.26-27,3.73-27,3.73s-18.18-5.88-12.82-34A11.29,11.29,0,0,1,683.63,683.19Z" transform="translate(-444.49 -437.96)"/>
            <line class="cls-48" x1="163.58" y1="250.31" x2="149.29" y2="248.69"/>
            <line class="cls-49" x1="278.22" y1="251.81" x2="292.59" y2="249.19"/>
            <path class="cls-48" d="M656.74,694.94s9-5.52,17,0" transform="translate(-444.49 -437.96)"/>
          </g>
          <path id="nose" class="cls-50" d="M659.06,722.44s3.37,7.37,12.57.33" transform="translate(-444.49 -437.96)"/>
          <ellipse id="left-eye" cx="192.6" cy="258.68" rx="5.24" ry="7.14"/>
          <path id="left-eye-brow" class="cls-51" d="M642,674.93s-11.67-4.42-18.56,2.7" transform="translate(-444.49 -437.96)"/>
          <ellipse id="right-eye" cx="248.76" cy="258.68" rx="5.24" ry="7.14"/>
          <path id="right-eye-brow" class="cls-51" d="M691.35,675.39s11.68-4.42,18.56,2.7" transform="translate(-444.49 -437.96)"/>
          <ellipse id="mouth" class="cls-52" cx="221.06" cy="317.14" rx="8.13" ry="10.32"/>
          <path id="hair" class="cls-53" d="M728.67,647.57s5.52-28.55-15.43-35.22c-19.22-6.11-41.33-26.92-72.34-15.23-17.24,6.5-23.69,4.94-31.41,10.47-19.43,13.92-19,30.46-19,30.46s-17.14,16.19,1.9,36.18c9.27,9.73,53-29,119-21.9,0,0,22.58,16.16,25.15,39S760.84,655.19,728.67,647.57Z" transform="translate(-444.49 -437.96)"/>
        </g>
      </g>
    </g>
  </g>
</svg>
